<svg width="18" height="19" viewBox="0 0 18 19" fill="none" xmlns="http://www.w3.org/2000/svg">
<path d="M4 14.8682H14C14.2 14.8682 14.35 14.7765 14.45 14.5932C14.55 14.4098 14.5333 14.2348 14.4 14.0682L11.65 10.3932C11.55 10.2598 11.4167 10.1932 11.25 10.1932C11.0833 10.1932 10.95 10.2598 10.85 10.3932L8.25 13.8682L6.4 11.3932C6.3 11.2598 6.16667 11.1932 6 11.1932C5.83333 11.1932 5.7 11.2598 5.6 11.3932L3.6 14.0682C3.46667 14.2348 3.45 14.4098 3.55 14.5932C3.65 14.7765 3.8 14.8682 4 14.8682ZM2 18.8682C1.45 18.8682 0.979 18.6725 0.587 18.2812C0.195667 17.8892 0 17.4182 0 16.8682V2.86816C0 2.31816 0.195667 1.84716 0.587 1.45516C0.979 1.06383 1.45 0.868164 2 0.868164H16C16.55 0.868164 17.021 1.06383 17.413 1.45516C17.8043 1.84716 18 2.31816 18 2.86816V16.8682C18 17.4182 17.8043 17.8892 17.413 18.2812C17.021 18.6725 16.55 18.8682 16 18.8682H2ZM2 16.8682H16V2.86816H2V16.8682Z" fill="black"/>
</svg>
