<svg width="20" height="9" viewBox="0 0 20 9" fill="none" xmlns="http://www.w3.org/2000/svg">
<path fill-rule="evenodd" clip-rule="evenodd" d="M9.874 3.86816H10.126C10.57 2.14316 12.136 0.868164 14 0.868164H16C17.0609 0.868164 18.0783 1.28959 18.8284 2.03974C19.5786 2.78988 20 3.8073 20 4.86816C20 5.92903 19.5786 6.94645 18.8284 7.69659C18.0783 8.44674 17.0609 8.86816 16 8.86816H14C13.1131 8.86805 12.2514 8.57334 11.5502 8.03033C10.849 7.48733 10.3481 6.72679 10.126 5.86816H9.874C9.65195 6.72679 9.15098 7.48733 8.44978 8.03033C7.74858 8.57334 6.88687 8.86805 6 8.86816H4C2.93913 8.86816 1.92172 8.44674 1.17157 7.69659C0.421427 6.94645 0 5.92903 0 4.86816C0 3.8073 0.421427 2.78988 1.17157 2.03974C1.92172 1.28959 2.93913 0.868164 4 0.868164H6C6.88687 0.868282 7.74858 1.16299 8.44978 1.70599C9.15098 2.249 9.65195 3.00954 9.874 3.86816ZM7.75 3.89916C7.57694 3.5867 7.32337 3.32629 7.01562 3.14498C6.70787 2.96367 6.35718 2.86809 6 2.86816H4C3.46957 2.86816 2.96086 3.07888 2.58579 3.45395C2.21071 3.82902 2 4.33773 2 4.86816C2 5.3986 2.21071 5.9073 2.58579 6.28238C2.96086 6.65745 3.46957 6.86816 4 6.86816H6C6.35718 6.86824 6.70787 6.77266 7.01562 6.59135C7.32337 6.41004 7.57694 6.14963 7.75 5.83716C7.53467 5.78226 7.34377 5.65721 7.20742 5.48174C7.07108 5.30626 6.99706 5.09038 6.99706 4.86816C6.99706 4.64595 7.07108 4.43006 7.20742 4.25459C7.34377 4.07912 7.53467 3.95406 7.75 3.89916ZM12 5.83816C12.1732 6.15044 12.4268 6.41065 12.7346 6.59178C13.0423 6.77291 13.3929 6.86834 13.75 6.86816H15.75C16.2804 6.86816 16.7891 6.65745 17.1642 6.28238C17.5393 5.9073 17.75 5.3986 17.75 4.86816C17.75 4.33773 17.5393 3.82902 17.1642 3.45395C16.7891 3.07888 16.2804 2.86816 15.75 2.86816H13.75C13.3928 2.86809 13.0421 2.96367 12.7344 3.14498C12.4266 3.32629 12.1731 3.5867 12 3.89916C12.2153 3.95406 12.4062 4.07912 12.5426 4.25459C12.6789 4.43006 12.7529 4.64595 12.7529 4.86816C12.7529 5.09038 12.6789 5.30626 12.5426 5.48174C12.4062 5.65721 12.2153 5.78226 12 5.83716V5.83816Z" fill="black"/>
</svg>
