<svg width="12" height="15" viewBox="0 0 12 15" fill="none" xmlns="http://www.w3.org/2000/svg">
<path d="M0.800781 14.8682V0.868164H6.32578C7.40911 0.868164 8.40911 1.2015 9.32578 1.86816C10.2424 2.53483 10.7008 3.45983 10.7008 4.64316C10.7008 5.49316 10.5091 6.14716 10.1258 6.60516C9.74245 7.06383 9.38411 7.39316 9.05078 7.59316C9.46745 7.7765 9.93011 8.11816 10.4388 8.61816C10.9468 9.11816 11.2008 9.86816 11.2008 10.8682C11.2008 12.3515 10.6591 13.3892 9.57578 13.9812C8.49245 14.5725 7.47578 14.8682 6.52578 14.8682H0.800781ZM3.82578 12.0682H6.42578C7.22578 12.0682 7.71311 11.8638 7.88778 11.4552C8.06311 11.0472 8.15078 10.7515 8.15078 10.5682C8.15078 10.3848 8.06311 10.0888 7.88778 9.68016C7.71311 9.27216 7.20078 9.06816 6.35078 9.06816H3.82578V12.0682ZM3.82578 6.36816H6.15078C6.70078 6.36816 7.10078 6.2265 7.35078 5.94316C7.60078 5.65983 7.72578 5.34316 7.72578 4.99316C7.72578 4.59316 7.58411 4.26816 7.30078 4.01816C7.01745 3.76816 6.65078 3.64316 6.20078 3.64316H3.82578V6.36816Z" fill="black"/>
</svg>
