<svg width="18" height="16" viewBox="0 0 18 16" fill="none" xmlns="http://www.w3.org/2000/svg">
<path d="M7.44 3.74816C7.63 3.59816 7.87 3.47816 8.16 3.38816C8.45 3.29816 8.8 3.25816 9.19 3.25816C9.59 3.25816 9.95 3.31816 10.25 3.41816C10.55 3.52816 10.8 3.66816 11 3.85816C11.2 4.04816 11.35 4.26816 11.44 4.53816C11.54 4.79816 11.59 5.07816 11.59 5.38816H14.6C14.6 4.72816 14.47 4.12816 14.22 3.57816C13.97 3.02816 13.61 2.54816 13.14 2.14816C12.6441 1.72655 12.0698 1.4071 11.45 1.20816C10.78 0.978164 10.05 0.868164 9.24 0.868164C8.45 0.868164 7.72 0.968164 7.06 1.15816C6.41 1.35816 5.84 1.63816 5.36 1.98816C4.88 2.34816 4.51 2.77816 4.25 3.27816C3.98 3.78816 3.85 4.33816 3.85 4.94816C3.85 5.58816 3.98 6.13816 4.24 6.61816C4.28 6.69816 4.34 6.78816 4.39 6.86816H9C8.36 6.64816 7.97 6.41816 7.59 6.16816C7.1 5.83816 6.85 5.43816 6.85 4.95816C6.85 4.72816 6.9 4.50816 7 4.29816C7.1 4.08816 7.25 3.90816 7.44 3.74816ZM0 9.86816H9.62C9.8 9.93816 10.02 10.0082 10.17 10.0682C10.54 10.2382 10.83 10.4082 11.04 10.5782C11.25 10.7482 11.39 10.9382 11.47 11.1482C11.54 11.3482 11.58 11.5782 11.58 11.8382C11.58 12.0682 11.53 12.2882 11.44 12.4982C11.35 12.6982 11.21 12.8782 11.02 13.0282C10.83 13.1782 10.6 13.2882 10.31 13.3782C10.02 13.4582 9.68 13.5082 9.3 13.5082C8.87 13.5082 8.47 13.4682 8.12 13.3782C7.77 13.2882 7.46 13.1482 7.21 12.9582C6.96 12.7682 6.76 12.5182 6.62 12.2082C6.48 11.8982 6.37 11.4482 6.37 10.9982H3.4C3.4 11.5482 3.48 12.1282 3.64 12.5782C3.8 13.0282 4.01 13.4282 4.29 13.7882C4.57 14.1382 4.89 14.4482 5.27 14.7082C5.64 14.9682 6.05 15.1882 6.49 15.3582C6.93 15.5282 7.39 15.6582 7.87 15.7482C8.35 15.8282 8.83 15.8782 9.31 15.8782C10.11 15.8782 10.84 15.7882 11.49 15.5982C12.14 15.4082 12.7 15.1482 13.16 14.8082C13.62 14.4682 13.98 14.0382 14.23 13.5382C14.48 13.0382 14.61 12.4682 14.61 11.8282C14.61 11.2282 14.51 10.6882 14.3 10.2182C14.25 10.1082 14.19 9.98816 14.13 9.88816H18V7.86816H0V9.86816Z" fill="black"/>
</svg>
