<svg width="18" height="19" viewBox="0 0 18 19" fill="none" xmlns="http://www.w3.org/2000/svg">
<path d="M1 14.8682C0.716667 14.8682 0.479333 14.7722 0.288 14.5802C0.0960001 14.3888 0 14.1515 0 13.8682C0 13.5848 0.0960001 13.3472 0.288 13.1552C0.479333 12.9638 0.716667 12.8682 1 12.8682H11C11.2833 12.8682 11.521 12.9638 11.713 13.1552C11.9043 13.3472 12 13.5848 12 13.8682C12 14.1515 11.9043 14.3888 11.713 14.5802C11.521 14.7722 11.2833 14.8682 11 14.8682H1ZM1 6.86816C0.716667 6.86816 0.479333 6.77216 0.288 6.58016C0.0960001 6.38883 0 6.1515 0 5.86816C0 5.58483 0.0960001 5.34716 0.288 5.15516C0.479333 4.96383 0.716667 4.86816 1 4.86816H11C11.2833 4.86816 11.521 4.96383 11.713 5.15516C11.9043 5.34716 12 5.58483 12 5.86816C12 6.1515 11.9043 6.38883 11.713 6.58016C11.521 6.77216 11.2833 6.86816 11 6.86816H1ZM1 10.8682C0.716667 10.8682 0.479333 10.7722 0.288 10.5802C0.0960001 10.3888 0 10.1515 0 9.86816C0 9.58483 0.0960001 9.34716 0.288 9.15516C0.479333 8.96383 0.716667 8.86816 1 8.86816H17C17.2833 8.86816 17.5207 8.96383 17.712 9.15516C17.904 9.34716 18 9.58483 18 9.86816C18 10.1515 17.904 10.3888 17.712 10.5802C17.5207 10.7722 17.2833 10.8682 17 10.8682H1ZM1 18.8682C0.716667 18.8682 0.479333 18.7722 0.288 18.5802C0.0960001 18.3888 0 18.1515 0 17.8682C0 17.5848 0.0960001 17.3475 0.288 17.1562C0.479333 16.9642 0.716667 16.8682 1 16.8682H17C17.2833 16.8682 17.5207 16.9642 17.712 17.1562C17.904 17.3475 18 17.5848 18 17.8682C18 18.1515 17.904 18.3888 17.712 18.5802C17.5207 18.7722 17.2833 18.8682 17 18.8682H1ZM1 2.86816C0.716667 2.86816 0.479333 2.77216 0.288 2.58016C0.0960001 2.38883 0 2.1515 0 1.86816C0 1.58483 0.0960001 1.34716 0.288 1.15516C0.479333 0.963831 0.716667 0.868164 1 0.868164H17C17.2833 0.868164 17.5207 0.963831 17.712 1.15516C17.904 1.34716 18 1.58483 18 1.86816C18 2.1515 17.904 2.38883 17.712 2.58016C17.5207 2.77216 17.2833 2.86816 17 2.86816H1Z" fill="black"/>
</svg>
