<svg width="17" height="13" viewBox="0 0 17 13" fill="none" xmlns="http://www.w3.org/2000/svg">
<path d="M5.39983 1.06816C5.50489 0.989371 5.62444 0.932042 5.75165 0.89945C5.87887 0.866859 6.01125 0.859643 6.14125 0.878215C6.27126 0.896786 6.39633 0.940782 6.50933 1.00769C6.62233 1.0746 6.72104 1.16311 6.79983 1.26816C6.87863 1.37322 6.93596 1.49277 6.96855 1.61998C7.00114 1.7472 7.00835 1.87958 6.98978 2.00959C6.97121 2.13959 6.92722 2.26466 6.86031 2.37766C6.7934 2.49066 6.70489 2.58937 6.59983 2.66816C5.03583 3.84116 4.13983 4.98216 3.62683 5.97816C4.3312 5.79685 5.07456 5.83947 5.75359 6.10012C6.43262 6.36076 7.01358 6.82648 7.41572 7.43253C7.81786 8.03858 8.0212 8.75485 7.99748 9.4818C7.97377 10.2087 7.72416 10.9102 7.28337 11.4888C6.84258 12.0673 6.2325 12.4942 5.53793 12.71C4.84336 12.9258 4.0988 12.9199 3.40775 12.6931C2.71669 12.4662 2.11348 12.0297 1.68194 11.4443C1.2504 10.8588 1.01199 10.1534 0.999833 9.42616C0.871695 8.19809 1.0461 6.95732 1.50783 5.81216C2.10483 4.30616 3.27183 2.66416 5.39983 1.06816ZM14.3998 1.06816C14.5049 0.989371 14.6244 0.932042 14.7517 0.89945C14.8789 0.866859 15.0113 0.859643 15.1413 0.878215C15.2713 0.896786 15.3963 0.940782 15.5093 1.00769C15.6223 1.0746 15.721 1.16311 15.7998 1.26816C15.8786 1.37322 15.936 1.49277 15.9685 1.61998C16.0011 1.7472 16.0084 1.87958 15.9898 2.00959C15.9712 2.13959 15.9272 2.26466 15.8603 2.37766C15.7934 2.49066 15.7049 2.58937 15.5998 2.66816C14.0358 3.84116 13.1398 4.98216 12.6268 5.97816C13.3312 5.79685 14.0746 5.83947 14.7536 6.10012C15.4326 6.36076 16.0136 6.82648 16.4157 7.43253C16.8179 8.03858 17.0212 8.75485 16.9975 9.4818C16.9738 10.2087 16.7242 10.9102 16.2834 11.4888C15.8426 12.0673 15.2325 12.4942 14.5379 12.71C13.8434 12.9258 13.0988 12.9199 12.4077 12.6931C11.7167 12.4662 11.1135 12.0297 10.6819 11.4443C10.2504 10.8588 10.012 10.1534 9.99983 9.42616C9.8717 8.19809 10.0461 6.95732 10.5078 5.81216C11.1058 4.30616 12.2718 2.66416 14.3998 1.06816Z" fill="black"/>
</svg>
