<svg width="377" height="318" viewBox="0 0 377 318" fill="none" xmlns="http://www.w3.org/2000/svg">
<g clip-path="url(#clip0_12_2)">
<path d="M307.037 153.478C307.037 157.947 306.849 162.37 306.473 166.748C306.177 170.165 305.773 173.552 305.262 176.908C304.718 180.461 304.052 183.971 303.263 187.439V187.443C302.747 189.726 302.181 191.989 301.564 194.234C299.773 200.76 297.547 207.159 294.899 213.387C294.323 214.742 293.729 216.087 293.116 217.424C290.796 222.484 288.199 227.413 285.336 232.188C277.307 245.596 267.284 257.705 255.612 268.1C254.349 269.223 253.068 270.327 251.77 271.413C224.211 294.429 189.428 307.012 153.518 306.957C68.7314 306.957 0 238.243 0 153.478C0 68.7134 68.7314 -0.000237152 153.518 -0.000237152C188.191 -0.0548944 221.853 11.6785 248.976 33.2734C250.247 34.2806 251.502 35.3105 252.742 36.363C258.789 41.4908 264.434 47.0762 269.625 53.0698H269.629C293.805 80.9319 307.091 116.593 307.037 153.478Z" fill="#F2F2F2"/>
<path opacity="0.15" d="M45.3184 179.99C30.694 171.288 19.656 155.026 21.089 138.072C34.4593 150.865 51.9251 158.518 70.396 159.677C77.5211 160.098 85.4898 159.824 90.7347 164.664C93.9982 167.675 95.5174 172.209 95.7666 176.642C96.0157 181.075 95.1274 185.485 94.2437 189.836L94.5479 190.902C77.5293 190.966 59.9428 188.692 45.3184 179.99Z" fill="#18345E"/>
<path d="M21.4457 138.054C27.3053 150.86 37.0523 161.496 49.3022 168.449C51.9356 169.923 54.7353 171.189 57.7105 171.776C60.615 172.326 63.6137 172.088 66.3953 171.088C69.0075 170.207 71.5776 169.004 74.3585 168.773C77.2897 168.53 80.0034 169.661 82.1355 171.641C84.7442 174.064 86.3265 177.279 87.7645 180.477C89.3612 184.028 90.9634 187.742 94.0247 190.296C94.3956 190.605 93.8937 191.162 93.5233 190.854C88.1972 186.411 87.3278 178.97 83.0704 173.738C81.0838 171.296 78.3491 169.438 75.1005 169.487C72.2596 169.53 69.6083 170.769 66.9711 171.683C64.2019 172.644 61.4278 173.095 58.5043 172.672C55.5138 172.24 52.6586 171.081 49.9991 169.681C43.9918 166.462 38.5282 162.318 33.8085 157.402C28.3907 151.821 23.9678 145.354 20.7312 138.282C20.531 137.845 21.2468 137.619 21.4457 138.054H21.4457Z" fill="white"/>
<path d="M45.2259 166.442C43.78 168.339 41.7069 169.659 39.3768 170.169C37.0468 170.678 34.6115 170.343 32.5059 169.223C32.0806 168.995 32.4152 168.323 32.841 168.552C34.7998 169.598 37.0683 169.91 39.2371 169.432C41.4059 168.953 43.3321 167.715 44.668 165.941C44.9588 165.556 45.515 166.059 45.2259 166.442L45.2259 166.442Z" fill="white"/>
<path d="M65.1296 171.709C64.521 166.873 62.1116 162.443 58.3816 159.304C58.0118 158.993 58.5136 158.436 58.8829 158.746C62.7583 162.02 65.2564 166.635 65.8786 171.669C65.9376 172.149 65.1882 172.186 65.1296 171.709V171.709Z" fill="white"/>
<path d="M29.3209 151.469C30.0333 150.852 30.5812 150.067 30.9154 149.186C31.2496 148.305 31.3597 147.354 31.2357 146.42C31.1707 145.941 31.9201 145.904 31.9847 146.38C32.1169 147.413 31.994 148.462 31.627 149.437C31.2599 150.411 30.6597 151.281 29.8788 151.97C29.8106 152.041 29.718 152.084 29.6196 152.089C29.5212 152.094 29.4245 152.062 29.3492 151.998C29.2756 151.932 29.2314 151.838 29.2261 151.739C29.2208 151.64 29.2549 151.543 29.3209 151.469V151.469Z" fill="white"/>
<path opacity="0.15" d="M68.4272 105.227C68.4764 105.525 68.5255 105.822 68.5803 106.123C69.2613 110.124 70.2663 114.064 71.5854 117.902C71.6827 118.2 71.7857 118.501 71.8914 118.796C75.1681 128.01 80.1273 136.536 86.5171 143.94C89.0624 146.884 91.8281 149.63 94.7902 152.154C98.8811 155.64 103.594 159.094 106.217 163.595C106.496 164.062 106.746 164.545 106.965 165.043L95.825 190.448C95.7707 190.493 95.722 190.541 95.6676 190.586L95.2692 191.621C95.1073 191.502 94.942 191.374 94.7801 191.255C94.686 191.186 94.5943 191.111 94.5001 191.042C94.4381 190.994 94.3762 190.946 94.3175 190.907C94.2968 190.891 94.2762 190.875 94.2613 190.861C94.2026 190.822 94.1523 190.779 94.0994 190.742C93.1734 190.032 92.2508 189.315 91.3316 188.589C91.3258 188.587 91.3258 188.587 91.3225 188.578C84.3325 183.034 77.7441 176.858 72.3028 169.878C72.1392 169.668 71.9696 169.455 71.8111 169.234C69.3759 166.074 67.2031 162.72 65.3144 159.207C64.2864 157.279 63.3567 155.301 62.5287 153.28C60.3995 148.053 59.1059 142.524 58.6954 136.895C57.8786 125.674 60.6606 114.317 67.8701 105.867C68.0547 105.651 68.2369 105.44 68.4272 105.227Z" fill="#18345E"/>
<path d="M68.7247 105.425C65.6908 119.178 67.0683 133.536 72.6617 146.461C73.8769 149.223 75.35 151.919 77.3719 154.179C79.3597 156.366 81.8971 157.981 84.7205 158.857C87.3366 159.726 90.1133 160.312 92.4726 161.802C94.9594 163.372 96.4452 165.908 96.955 168.773C97.5788 172.277 96.9058 175.797 96.1279 179.216C95.2643 183.013 94.3071 186.942 95.2135 190.824C95.3233 191.294 94.5869 191.437 94.4773 190.967C92.9003 184.214 96.687 177.75 96.4388 171.009C96.323 167.864 95.2584 164.735 92.6351 162.819C90.341 161.143 87.4782 160.536 84.8217 159.679C82.0323 158.779 79.5457 157.469 77.4659 155.372C75.3384 153.227 73.7567 150.583 72.4762 147.864C69.6186 141.678 67.7517 135.081 66.9439 128.315C65.9791 120.598 66.3419 112.772 68.0166 105.178C68.1204 104.708 68.8279 104.958 68.7247 105.425Z" fill="white"/>
<path d="M70.6156 142.406C68.3191 143.049 65.8684 142.856 63.7013 141.86C61.5341 140.864 59.7916 139.131 58.785 136.969C58.5828 136.531 59.2542 136.196 59.4567 136.635C60.3904 138.65 62.0137 140.264 64.0336 141.188C66.0535 142.111 68.3371 142.282 70.472 141.669C70.9361 141.537 71.077 142.274 70.6156 142.406H70.6156Z" fill="white"/>
<path d="M83.3359 158.591C85.7625 154.363 86.5061 149.376 85.4184 144.625C85.3102 144.154 86.0465 144.011 86.1546 144.481C87.2773 149.428 86.4929 154.616 83.958 159.01C83.7161 159.428 83.0953 159.007 83.3359 158.591Z" fill="white"/>
<path d="M66.9338 120.877C67.8743 120.813 68.7841 120.516 69.5817 120.014C70.3792 119.511 71.0394 118.819 71.5031 117.998C71.7395 117.577 72.3601 117.998 72.1252 118.417C71.6087 119.321 70.8786 120.085 69.9987 120.642C69.1188 121.199 68.1158 121.532 67.0774 121.613C66.9801 121.628 66.8805 121.606 66.7988 121.551C66.7171 121.496 66.6594 121.412 66.6375 121.316C66.619 121.219 66.6397 121.118 66.6952 121.036C66.7506 120.953 66.8364 120.896 66.9338 120.877V120.877Z" fill="white"/>
<path d="M106.343 35.5718L125.133 255.475L87.5535 258.299V38.3696C92.0315 35.4073 98.4596 34.9438 106.343 35.5718Z" fill="#18345E"/>
<path d="M199.094 35.5718L180.304 255.475L217.884 258.299V38.3696C213.406 35.4073 206.978 34.9438 199.094 35.5718Z" fill="#18345E"/>
<path d="M212.257 267.388H92.7805C90.8647 267.386 89.0279 266.624 87.6733 265.27C86.3186 263.916 85.5566 262.079 85.5544 260.164V41.597C85.5566 39.6817 86.3186 37.8455 87.6733 36.4911C89.028 35.1368 90.8647 34.375 92.7805 34.3728H212.257C214.173 34.375 216.01 35.1368 217.364 36.4911C218.719 37.8455 219.481 39.6817 219.483 41.597V260.164C219.481 262.079 218.719 263.916 217.364 265.27C216.01 266.624 214.173 267.386 212.257 267.388ZM92.7805 36.7709C91.5006 36.7723 90.2736 37.2812 89.3686 38.186C88.4636 39.0908 87.9546 40.3175 87.9532 41.597V260.164C87.9546 261.443 88.4636 262.67 89.3686 263.575C90.2736 264.48 91.5006 264.989 92.7805 264.99H212.257C213.537 264.989 214.764 264.48 215.669 263.575C216.574 262.67 217.083 261.443 217.085 260.164V41.597C217.083 40.3175 216.574 39.0908 215.669 38.186C214.764 37.2813 213.537 36.7723 212.257 36.7709L92.7805 36.7709Z" fill="#18345E"/>
<path d="M218.284 70.744H86.7539V73.1421H218.284V70.744Z" fill="#18345E"/>
<path d="M218.284 110.712H86.7539V113.11H218.284V110.712Z" fill="#18345E"/>
<path d="M129.437 35.5718H127.038V144.685H129.437V35.5718Z" fill="#18345E"/>
<path d="M178 35.5718H175.601V144.685H178V35.5718Z" fill="#18345E"/>
<path d="M233.276 273.983H75.7597C72.8969 273.983 70.1513 272.846 68.127 270.822C66.1027 268.799 64.9655 266.054 64.9655 263.192C64.9655 260.33 66.1027 257.585 68.127 255.561C70.1513 253.537 72.8969 252.4 75.7597 252.4H233.276C236.139 252.4 238.884 253.537 240.909 255.561C242.933 257.585 244.07 260.33 244.07 263.192C244.07 266.054 242.933 268.799 240.909 270.822C238.884 272.846 236.139 273.983 233.276 273.983Z" fill="#18345E"/>
<path d="M218.284 139.09H87.5535V147.084H218.284V139.09Z" fill="#18345E"/>
<path d="M129.809 164.53L129.643 164.45C120.731 160.146 109.061 160.15 91.8019 164.464L91.6176 164.51L91.5623 164.328C89.7365 158.343 87.6683 151.565 91.5537 148.23C91.6082 138.443 100.195 130.497 110.742 130.497C121.287 130.497 129.872 138.439 129.93 148.223C135.71 152.641 132.955 159.17 129.902 164.371L129.809 164.53Z" fill="#18345E"/>
<path d="M184.584 143.574C184.425 144.367 184.093 145.116 183.612 145.767C183.132 146.418 182.515 146.955 181.804 147.342C181.093 147.729 180.306 147.955 179.499 148.005C178.691 148.054 177.882 147.927 177.13 147.63L145.635 179.271L142.825 169.446L174.105 140.063C174.687 138.832 175.701 137.857 176.954 137.323C178.207 136.789 179.613 136.733 180.905 137.166C182.196 137.598 183.284 138.49 183.963 139.671C184.641 140.852 184.862 142.241 184.584 143.574L184.584 143.574Z" fill="#FFB6B6"/>
<path d="M106.746 174.035C106.746 174.035 103.889 180.509 110.94 184.501C117.99 188.493 142.632 182.978 146.63 182.207C150.629 181.437 165.562 159.095 165.562 159.095L163.45 148.137L143.645 165.326L106.746 174.035Z" fill="white"/>
<path d="M101.546 209.834L101.946 217.428C101.946 217.428 100.766 224.155 101.736 225.606C102.699 227.051 128.982 227.233 128.982 227.233C128.982 227.233 130.719 217.874 132.214 209.682L101.546 209.834Z" fill="#FFB6B6"/>
<path d="M177.111 310.243L182.606 309.133L181.033 286.945L172.924 288.583L177.111 310.243Z" fill="#FFB6B6"/>
<path d="M184.982 281.368L190.09 279.072L183.464 257.843L175.924 261.232L184.982 281.368Z" fill="#FFB6B6"/>
<path d="M189.432 269.407L179.813 274.851L156.093 236.744C139.442 247.96 123.158 253.331 106.743 256.197C101.193 257.185 95.535 256.684 94.4696 251.037C94.4198 250.773 94.38 250.508 94.3504 250.241C93.6951 244.072 101.37 236.166 102.346 228.619L123.351 227.358L125.941 230.679L150.232 215.748C155.118 212.745 161.543 214.369 164.583 219.375C164.744 219.64 164.893 219.91 165.031 220.188L189.432 269.407Z" fill="#18345E"/>
<path d="M183.545 295.041L172.539 296.064L152.585 255.264C132.797 258.666 114.129 259.756 97.9822 255.64C92.5152 254.266 89.1734 248.622 90.5181 243.035C90.581 242.774 90.6536 242.515 90.7361 242.26C92.6686 236.365 97.7271 232.195 101.713 225.711L130.824 226.153L127.572 237.369L155.852 233.711C161.539 232.975 166.733 237.091 167.453 242.903C167.491 243.21 167.516 243.518 167.527 243.827L183.545 295.041Z" fill="#18345E"/>
<path d="M112.913 158.729C119.441 158.729 124.734 153.438 124.734 146.912C124.734 140.385 119.441 135.094 112.913 135.094C106.384 135.094 101.092 140.385 101.092 146.912C101.092 153.438 106.384 158.729 112.913 158.729Z" fill="#FFB6B6"/>
<path d="M105.983 162.996L116.821 164.27C117.279 164.324 117.707 164.519 118.048 164.828C118.389 165.137 118.626 165.545 118.724 165.994L120.447 173.88L131.192 186.53C131.192 186.53 135.051 193.762 133.604 201.96C132.157 210.157 131.521 216.247 131.521 216.247C131.521 216.247 102.698 227.051 101.733 225.605C100.769 224.158 100.456 217.588 100.456 217.588L96.5974 174.674C96.5974 174.674 100.938 167.442 103.35 167.442C104.906 167.389 104.706 163.887 105.983 162.996Z" fill="white"/>
<path d="M131.814 218.886C133.334 218.886 134.566 217.408 134.566 215.584C134.566 213.761 133.334 212.282 131.814 212.282C130.294 212.282 129.062 213.761 129.062 215.584C129.062 217.408 130.294 218.886 131.814 218.886Z" fill="white"/>
<path d="M174.385 304.53L182.762 300.333L184.341 304.015L194.934 306.156C195.457 306.262 195.932 306.532 196.291 306.927C196.65 307.322 196.873 307.821 196.928 308.352C196.983 308.883 196.866 309.417 196.596 309.877C196.325 310.337 195.915 310.699 195.424 310.909L185.189 315.295L181.863 312.409L182.736 316.346L178.877 318L174.385 304.53Z" fill="#18345E"/>
<path d="M182.585 279.602L190.886 275.258L192.53 278.912L203.159 280.866C203.684 280.963 204.164 281.225 204.53 281.613C204.896 282.002 205.127 282.498 205.191 283.027C205.256 283.557 205.149 284.093 204.886 284.558C204.624 285.023 204.22 285.391 203.733 285.61L193.577 290.176L190.2 287.348L191.142 291.27L187.313 292.991L182.585 279.602Z" fill="#18345E"/>
<path d="M106.159 143.205C103.036 143.21 99.9882 142.248 97.4336 140.453L97.3483 140.393V140.289C97.3517 137.269 98.5532 134.373 100.689 132.238C102.825 130.103 105.721 128.901 108.742 128.898H113.54C116.56 128.901 119.457 130.103 121.593 132.238C123.729 134.373 124.93 137.269 124.934 140.289C124.93 140.98 124.657 141.643 124.173 142.136C123.688 142.629 123.03 142.913 122.339 142.928L106.429 143.202C106.339 143.204 106.249 143.205 106.159 143.205Z" fill="#18345E"/>
<path d="M125.733 138.101C127.263 137.218 127.518 134.798 126.304 132.695C125.09 130.592 122.865 129.603 121.335 130.486C119.806 131.369 119.55 133.79 120.765 135.892C121.979 137.995 124.203 138.984 125.733 138.101Z" fill="#18345E"/>
<path d="M101.809 135.755C103.526 134.038 103.906 131.634 102.657 130.386C101.408 129.137 99.0029 129.516 97.2855 131.233C95.5681 132.95 95.1884 135.354 96.4374 136.603C97.6865 137.852 100.091 137.472 101.809 135.755Z" fill="#18345E"/>
<path d="M206.426 243.807H194.627C194.361 243.806 194.098 243.864 193.856 243.976C193.614 244.087 193.4 244.25 193.228 244.453C192.793 244.373 192.345 244.398 191.921 244.525C191.497 244.651 191.109 244.877 190.789 245.182C190.469 245.488 190.227 245.865 190.081 246.282C189.935 246.7 189.89 247.146 189.95 247.585C190.01 248.023 190.173 248.441 190.426 248.804C190.679 249.167 191.015 249.464 191.405 249.673C191.795 249.881 192.23 249.994 192.672 250.002C193.114 250.01 193.552 249.913 193.95 249.718L194.929 252.898C195.044 253.274 195.278 253.604 195.595 253.838C195.913 254.072 196.296 254.199 196.691 254.199H204.362C204.756 254.199 205.14 254.072 205.457 253.838C205.774 253.604 206.008 253.274 206.124 252.898L208.188 246.192C208.273 245.916 208.291 245.625 208.243 245.34C208.194 245.056 208.08 244.787 207.909 244.555C207.737 244.323 207.514 244.135 207.256 244.005C206.999 243.875 206.714 243.807 206.426 243.807ZM192.73 249.203C192.2 249.203 191.692 248.992 191.317 248.617C190.942 248.243 190.731 247.734 190.731 247.204C190.731 246.674 190.942 246.166 191.317 245.791C191.692 245.416 192.2 245.206 192.73 245.206C192.767 245.206 192.801 245.215 192.837 245.217C192.757 245.538 192.767 245.876 192.865 246.192L193.709 248.936C193.412 249.109 193.074 249.201 192.73 249.203Z" fill="#3F3D56"/>
<path d="M153.739 235.131C152.934 235.205 152.121 235.102 151.36 234.829C150.598 234.556 149.906 234.119 149.331 233.549C148.757 232.979 148.314 232.291 148.035 231.531C147.756 230.772 147.646 229.961 147.714 229.155L108.36 208.071L116.968 202.561L154.097 224.087C155.444 224.292 156.669 224.983 157.54 226.03C158.412 227.077 158.869 228.407 158.824 229.768C158.78 231.129 158.238 232.427 157.301 233.415C156.364 234.404 155.097 235.014 153.739 235.131Z" fill="#FFB6B6"/>
<path d="M102.219 169.325C102.219 169.325 95.1959 168.445 93.3934 176.343C91.591 184.241 103.946 206.258 105.831 209.866C107.716 213.475 133.41 221.366 133.41 221.366L143.303 216.2L121.151 202.164L102.219 169.325Z" fill="white"/>
<path d="M151.719 136.692H154.118C155.284 136.692 156.403 137.155 157.228 137.979C158.052 138.804 158.516 139.922 158.516 141.088H147.322C147.322 139.922 147.785 138.804 148.61 137.979C149.434 137.155 150.553 136.692 151.719 136.692Z" fill="#18345E"/>
<path d="M248.157 222.663L229.882 198.662L215.463 206.813L246.019 243.089L248.157 222.663Z" fill="#3F3D56"/>
<path d="M290.254 183.647C290.66 193.705 292.218 203.684 294.899 213.387C294.323 214.742 293.729 216.088 293.116 217.424C290.796 222.485 288.199 227.414 285.336 232.188C277.307 245.596 267.284 257.705 255.612 268.1C254.349 269.223 253.068 270.327 251.77 271.413C244.37 261.213 240.376 249.958 238.797 238.375C238.597 236.904 238.433 235.418 238.309 233.939V233.931C238.006 230.337 237.909 226.728 238.017 223.123C238.021 222.836 238.029 222.544 238.041 222.252C238.181 218.399 238.529 214.538 239.053 210.713V210.709C239.113 210.269 239.173 209.83 239.241 209.39C239.433 208.071 239.649 206.752 239.884 205.441C241.257 197.881 243.173 190.428 245.617 183.143V183.139C245.685 182.927 245.753 182.719 245.829 182.511C246.093 181.72 246.361 180.937 246.637 180.153C246.654 180.092 246.675 180.032 246.701 179.974C247.057 178.95 247.42 177.935 247.792 176.928C247.892 176.648 247.996 176.368 248.104 176.089C248.524 174.965 248.952 173.85 249.387 172.751C249.523 172.4 249.663 172.048 249.803 171.7C249.911 171.432 250.015 171.164 250.127 170.901V170.897C250.763 169.326 251.406 167.786 252.058 166.276C253.885 162.032 255.764 158.039 257.595 154.358L257.599 154.354C265.199 139.114 272.107 129.218 272.107 129.218L298.05 137.611C294.955 143.099 292.56 151.192 291.249 160.741C290.239 168.33 289.906 175.994 290.254 183.643L290.254 183.647Z" fill="#3F3D56"/>
<path d="M247.137 181.205C246.985 180.849 246.813 180.501 246.637 180.153C245.725 178.388 244.551 176.771 243.155 175.357C242.947 175.145 242.731 174.934 242.507 174.734C240.099 172.516 237.171 170.941 233.993 170.155C230.815 169.368 227.489 169.395 224.325 170.233L224.309 170.241L224.189 170.273L224.217 170.409C224.337 171.042 224.511 171.664 224.736 172.268C224.796 172.431 224.864 172.587 224.932 172.743C224.96 172.815 224.996 172.879 225.028 172.951C225.028 172.951 225.024 172.955 225.032 172.955C225.032 172.959 225.036 172.963 225.036 172.967C225.112 173.115 225.184 173.267 225.264 173.411C225.1 173.255 224.944 173.095 224.792 172.931C224.644 172.779 224.509 172.619 224.373 172.459C223.907 171.916 223.486 171.336 223.113 170.725L223.049 170.617L222.937 170.661C221.429 171.184 219.99 171.888 218.652 172.759L218.508 172.855C217.486 173.526 216.335 173.974 215.129 174.171C213.923 174.368 212.689 174.309 211.507 173.998C209.644 173.518 207.702 173.43 205.803 173.741C203.904 174.051 202.09 174.752 200.477 175.801C199.409 176.497 198.443 177.339 197.607 178.303C197.535 178.387 197.463 178.475 197.391 178.559C197.239 178.743 197.095 178.93 196.955 179.122C195.452 181.13 194.53 183.512 194.289 186.009L194.281 186.101L194.357 186.153C195.709 187.08 197.239 187.716 198.85 188.023C197.838 188.164 196.813 188.19 195.796 188.099H195.792C195.33 188.061 194.871 187.997 194.416 187.907L194.333 187.891H194.329L194.225 187.871L194.241 188.063C194.36 190.505 195.129 192.871 196.467 194.918L196.507 194.974C196.522 194.994 196.535 195.015 196.547 195.038C197.115 195.905 197.586 196.831 197.955 197.799C198.889 200.206 199.095 202.835 198.546 205.357C197.925 208.056 198.132 210.879 199.139 213.458C200.146 216.037 201.906 218.254 204.191 219.818C206.199 221.199 208.538 222.019 210.968 222.196C211.3 222.224 211.635 222.24 211.971 222.24C213.894 222.246 215.796 221.85 217.556 221.077L217.62 221.053L217.636 220.981C217.975 219.889 218.45 218.844 219.051 217.872C218.855 218.638 218.755 219.426 218.756 220.218V220.481L218.983 220.35C219.179 220.234 219.379 220.11 219.559 219.994C220.639 219.289 221.617 218.439 222.466 217.468C222.797 217.084 223.133 216.712 223.485 216.341L223.489 216.337C224.173 215.609 224.896 214.898 225.648 214.218C227.247 212.783 228.958 211.477 230.765 210.314C232.571 209.154 234.459 208.128 236.414 207.244H236.418C236.638 207.14 236.862 207.04 237.082 206.944C238.055 206.52 238.993 206.018 239.884 205.441C239.916 205.421 239.944 205.405 239.972 205.385C243.837 202.856 246.678 199.037 247.99 194.609C249.302 190.18 249 185.431 247.137 181.205L247.137 181.205Z" fill="white"/>
<path opacity="0.15" d="M199.205 211.032C199.096 211.518 199.013 212.01 198.957 212.505C198.213 210.153 198.105 207.646 198.645 205.24C198.728 204.872 198.79 204.499 198.839 204.124C199.578 206.353 199.704 208.738 199.205 211.032Z" fill="black"/>
<path opacity="0.15" d="M199.507 193.695C198.323 193.859 197.122 193.865 195.937 193.712C195.626 193.126 195.358 192.519 195.134 191.895C196.455 192.786 197.943 193.398 199.507 193.695Z" fill="black"/>
<path opacity="0.15" d="M195.842 187.971C195.405 189.088 195.114 190.258 194.978 191.45C194.613 190.314 194.398 189.136 194.337 187.945L194.327 187.753L194.516 187.79C194.955 187.872 195.397 187.933 195.842 187.971Z" fill="black"/>
<path opacity="0.15" d="M200.58 175.682C202.192 174.632 204.004 173.93 205.902 173.619C207.8 173.308 209.742 173.396 211.604 173.877C212.786 174.19 214.021 174.25 215.228 174.053C216.435 173.856 217.587 173.408 218.608 172.736L218.753 172.641C220.089 171.768 221.528 171.061 223.036 170.538L223.151 170.498L223.214 170.602C223.811 171.587 224.533 172.491 225.364 173.29C224.859 172.35 224.506 171.337 224.317 170.288L224.29 170.15L224.426 170.114C227.394 169.328 230.506 169.255 233.508 169.901C236.51 170.547 239.316 171.894 241.699 173.83C244.081 175.767 245.971 178.239 247.216 181.046C248.46 183.852 249.024 186.913 248.86 189.978C248.23 187.479 247.111 185.13 245.566 183.066C244.022 181.003 242.083 179.266 239.863 177.957C237.642 176.649 235.184 175.793 232.63 175.441C230.076 175.089 227.478 175.247 224.986 175.906L224.85 175.942L224.877 176.081C225.066 177.13 225.419 178.143 225.924 179.082C225.093 178.284 224.371 177.38 223.774 176.394L223.712 176.29L223.596 176.33C222.088 176.854 220.65 177.56 219.313 178.433L219.169 178.529C218.147 179.2 216.995 179.649 215.788 179.845C214.581 180.042 213.347 179.982 212.165 179.67C209.07 178.867 205.792 179.162 202.89 180.505C199.989 181.848 197.643 184.156 196.253 187.035C195.634 186.737 195.034 186.402 194.457 186.031L194.378 185.982L194.388 185.889C194.587 183.832 195.247 181.846 196.319 180.079C197.391 178.312 198.847 176.809 200.58 175.682Z" fill="#18345E"/>
<path d="M349.206 73.5578L348.827 73.306L348.551 73.6657C346.416 76.3529 344.717 79.3594 343.517 82.5746C343.683 78.8706 344.331 75.2039 345.444 71.6672L345.564 71.2955L345.22 71.0997C340.747 68.5674 335.981 66.5916 331.028 65.2164L330.488 65.0725C326.692 64.0311 323.158 62.2015 320.117 59.703C317.076 57.2045 314.595 54.0932 312.838 50.5719C308.753 42.4906 302.3 35.8467 294.341 31.5269C286.381 27.2072 277.293 25.4169 268.289 26.3951H268.285C268.189 26.4031 268.089 26.4151 267.993 26.4271C267.83 26.443 267.67 26.463 267.51 26.483C267.182 26.527 266.862 26.5709 266.542 26.6189C266.27 26.6589 265.995 26.7028 265.723 26.7508C265.579 26.7708 265.439 26.7948 265.299 26.8227C265.159 26.8467 265.015 26.8707 264.875 26.8987H264.871C262.187 27.4063 259.556 28.1623 257.011 29.1569H257.007V29.1609L256.364 29.4127C255.7 29.6845 255.042 29.9722 254.389 30.276C254.241 30.3439 254.097 30.4159 253.949 30.4838C253.909 30.5038 253.865 30.5238 253.825 30.5478C253.405 30.7476 252.989 30.9555 252.578 31.1753C252.518 31.2033 252.458 31.2352 252.398 31.2672L252.014 31.471C251.17 31.9267 250.342 32.4103 249.527 32.9219C249.459 32.9619 249.395 33.0018 249.327 33.0458C249.255 33.0938 249.179 33.1417 249.108 33.1897C249.064 33.2137 249.02 33.2456 248.976 33.2736C248.852 33.3496 248.732 33.4295 248.612 33.5134C248.372 33.6693 248.132 33.8292 247.896 33.993C247.652 34.1569 247.412 34.3288 247.173 34.5006L246.933 34.6725L246.977 34.9683C247.017 35.2121 247.053 35.4559 247.097 35.6957C247.137 35.9355 247.177 36.1713 247.221 36.4071C247.289 36.8028 247.364 37.1945 247.44 37.5742C247.492 37.826 247.54 38.0738 247.596 38.3176C247.648 38.5694 247.704 38.8212 247.764 39.073C247.88 39.5926 248.004 40.0962 248.136 40.5918C248.2 40.8396 248.268 41.0874 248.34 41.3312C248.38 41.4791 248.42 41.627 248.464 41.7709C248.496 41.8708 248.528 41.9707 248.56 42.0707C248.568 42.1026 248.576 42.1386 248.588 42.1746C248.597 42.2084 248.607 42.2418 248.62 42.2745C248.664 42.4224 248.708 42.5663 248.752 42.7062C248.776 42.7821 248.8 42.858 248.828 42.93C248.884 43.1018 248.944 43.2777 249.004 43.4456C249.068 43.6374 249.136 43.8293 249.203 44.0171C249.219 44.0651 249.235 44.109 249.251 44.157C249.263 44.193 249.275 44.229 249.291 44.2649C249.307 44.3049 249.323 44.3489 249.339 44.3888C249.407 44.5687 249.475 44.7525 249.547 44.9324C249.571 44.9963 249.595 45.0643 249.623 45.1282C250.271 46.7565 251.068 48.3218 252.002 49.8045C250.967 48.9172 249.97 47.9766 249.012 46.9828C247.532 45.446 246.169 43.8015 244.934 42.0627C244.834 41.9268 244.734 41.7869 244.642 41.647C244.454 41.3792 244.27 41.1114 244.09 40.8396C243.898 40.5599 243.714 40.2681 243.534 39.9803C243.415 39.7885 243.295 39.5926 243.179 39.4008C243.063 39.2169 242.955 39.0371 242.851 38.8532L242.539 38.3176H242.535V38.3216L242.095 38.7533C241.919 38.9252 241.743 39.097 241.572 39.2689C236.198 44.6738 232.306 51.37 230.27 58.7135L230.21 58.9333L230.15 59.1611C230.034 59.5688 229.918 59.9645 229.794 60.3682V60.3721C229.674 60.7718 229.546 61.1715 229.41 61.5632C229.286 61.9349 229.158 62.3026 229.022 62.6703C228.978 62.7942 228.93 62.9181 228.878 63.042C228.794 63.2818 228.702 63.5177 228.61 63.7575C228.566 63.8654 228.523 63.9773 228.479 64.0852C228.371 64.349 228.263 64.6128 228.155 64.8726C228.139 64.9126 228.119 64.9565 228.099 64.9965C228.067 65.0764 228.031 65.1564 227.999 65.2323C227.915 65.4241 227.827 65.62 227.743 65.8118C227.683 65.9357 227.627 66.0636 227.571 66.1875C227.547 66.2435 227.519 66.2995 227.495 66.3554C227.347 66.6752 227.195 66.9909 227.035 67.3027C226.855 67.6704 226.671 68.0381 226.476 68.3978C226.304 68.7336 226.124 69.0613 225.936 69.389C225.612 69.9686 225.272 70.5441 224.92 71.1037C224.784 71.3195 224.649 71.5353 224.509 71.7512C224.477 71.8031 224.445 71.8551 224.413 71.903C224.297 72.0909 224.177 72.2708 224.053 72.4546C223.969 72.5785 223.885 72.7024 223.801 72.8223C223.661 73.0381 223.513 73.246 223.361 73.4498C223.321 73.5138 223.277 73.5737 223.233 73.6337C223.009 73.9454 222.786 74.2492 222.558 74.5529C222.55 74.5569 222.55 74.5609 222.546 74.5649C222.538 74.5649 222.538 74.5689 222.534 74.5729C222.434 74.7048 222.334 74.8367 222.23 74.9646C222.094 75.1525 221.946 75.3363 221.798 75.5162C221.558 75.8199 221.306 76.1277 221.05 76.4275C221.042 76.4355 221.038 76.4435 221.03 76.4474C219.706 78.0034 218.271 79.462 216.737 80.812C216.709 80.836 216.689 80.86 216.661 80.8799C216.445 81.0678 216.229 81.2556 216.005 81.4395C215.913 81.5154 215.821 81.5914 215.729 81.6673C215.577 81.7952 215.421 81.9231 215.27 82.039C215.252 82.0574 215.231 82.0735 215.21 82.087C215.074 82.1989 214.942 82.3028 214.806 82.4067C214.642 82.5386 214.478 82.6625 214.31 82.7864C213.518 83.386 212.706 83.9522 211.871 84.4851C211.747 84.569 211.615 84.653 211.488 84.7329C211.412 84.7809 211.336 84.8288 211.264 84.8688C210.96 85.0566 210.656 85.2405 210.352 85.4164C210.048 85.5962 209.736 85.7681 209.429 85.9359C208.769 86.2957 208.117 86.6714 207.482 87.063C207.162 87.2629 206.842 87.4627 206.526 87.6666C205.271 88.4819 204.062 89.3546 202.9 90.2845C201.738 91.215 200.624 92.2035 199.562 93.2462C199.43 93.3741 199.298 93.5059 199.166 93.6418C198.902 93.9016 198.646 94.1654 198.403 94.4292C198.011 94.8329 197.635 95.2486 197.263 95.6682C195.303 97.8922 193.567 100.305 192.082 102.871C191.336 104.152 190.658 105.471 190.051 106.823C189.591 107.835 189.171 108.87 188.792 109.917C188.54 110.616 188.304 111.322 188.084 112.035C187.976 112.391 187.872 112.751 187.772 113.11C187.432 114.329 187.148 115.56 186.917 116.795C186.729 117.787 186.577 118.779 186.461 119.773C186.401 120.273 186.353 120.772 186.309 121.268C186.206 122.486 186.153 123.705 186.151 124.926C186.144 128.588 186.589 132.236 187.476 135.788C187.672 136.572 187.889 137.351 188.128 138.127C188.248 138.514 188.376 138.898 188.504 139.282C188.828 140.241 189.186 141.191 189.579 142.131C189.815 142.695 190.063 143.255 190.323 143.81C191.974 147.342 194.082 150.642 196.591 153.626C197.003 154.118 197.428 154.602 197.867 155.077C197.871 155.077 197.867 155.081 197.867 155.081C198.955 156.267 200.106 157.394 201.317 158.455H201.321C201.805 158.882 202.296 159.297 202.796 159.698C202.8 159.694 202.8 159.698 202.8 159.698C203.304 160.105 203.812 160.497 204.331 160.877C204.591 161.064 204.855 161.252 205.123 161.44C205.647 161.812 206.181 162.17 206.726 162.515H206.73C207.274 162.867 207.826 163.203 208.385 163.523C209.509 164.166 210.66 164.77 211.843 165.317L212.043 165.409L212.247 165.317C214.145 164.463 216.101 163.746 218.1 163.171C218.54 163.043 218.984 162.927 219.423 162.815C220.535 162.539 221.654 162.307 222.782 162.12C221.683 162.671 220.623 163.294 219.607 163.986C218.82 164.518 218.044 165.097 217.264 165.737C217.005 165.949 216.745 166.168 216.485 166.392L215.837 166.952L216.649 167.22C216.945 167.316 217.24 167.411 217.536 167.499C217.94 167.627 218.34 167.743 218.732 167.851C219.587 168.091 220.448 168.303 221.314 168.487C221.526 168.531 221.734 168.575 221.946 168.618C222.358 168.698 222.774 168.778 223.189 168.85C223.206 168.855 223.224 168.857 223.241 168.858C223.673 168.93 224.109 168.998 224.541 169.058C225.344 169.174 226.148 169.266 226.951 169.334C227.039 169.346 227.127 169.35 227.219 169.354C227.415 169.37 227.607 169.386 227.803 169.398C228.235 169.426 228.67 169.446 229.106 169.462C229.138 169.462 229.166 169.466 229.198 169.466C229.418 169.474 229.638 169.482 229.858 169.486C229.858 169.486 229.858 169.49 229.862 169.486C230.082 169.49 230.302 169.494 230.521 169.494H231.737C231.965 169.494 232.193 169.498 232.424 169.498C232.744 169.498 233.068 169.502 233.388 169.506C233.472 169.506 233.56 169.51 233.648 169.51C234.16 169.518 234.671 169.53 235.183 169.542C235.215 169.542 235.247 169.546 235.279 169.546C235.791 169.562 236.302 169.578 236.814 169.602C236.926 169.606 237.038 169.61 237.154 169.618C237.646 169.638 238.137 169.662 238.629 169.69C238.769 169.698 238.913 169.71 239.057 169.718C239.429 169.738 239.805 169.762 240.176 169.79C240.396 169.802 240.612 169.818 240.832 169.838C241.72 169.905 242.603 169.981 243.491 170.069C243.786 170.093 244.082 170.125 244.378 170.157C245.17 170.241 245.964 170.333 246.761 170.433C247.117 170.473 247.472 170.521 247.828 170.569C247.868 170.573 247.908 170.577 247.948 170.585C248.388 170.645 248.824 170.705 249.263 170.769C249.551 170.809 249.839 170.853 250.127 170.897C250.423 170.941 250.719 170.985 251.015 171.037C251.174 171.061 251.334 171.089 251.498 171.116C251.882 171.176 252.27 171.24 252.658 171.312C252.693 171.316 252.727 171.321 252.762 171.328C253.585 171.472 254.413 171.624 255.236 171.788C255.72 171.88 256.2 171.976 256.68 172.076C257.055 172.152 257.431 172.232 257.807 172.312C257.871 172.324 257.935 172.34 257.999 172.356C258.013 172.36 258.028 172.362 258.043 172.364C258.611 172.487 259.182 172.615 259.75 172.751C261.721 173.207 263.689 173.713 265.655 174.27C266.107 174.394 266.558 174.526 267.01 174.658C267.202 174.714 267.39 174.77 267.578 174.826C267.97 174.941 268.357 175.057 268.749 175.181C269.093 175.285 269.441 175.393 269.785 175.505C270 175.573 270.216 175.641 270.432 175.713C270.768 175.817 271.104 175.925 271.436 176.041C271.72 176.129 271.999 176.22 272.279 176.32C272.679 176.452 273.083 176.588 273.483 176.732C273.599 176.772 273.718 176.812 273.834 176.856C274.322 177.024 274.81 177.196 275.298 177.376C275.773 177.547 276.249 177.723 276.721 177.899C277.049 178.023 277.377 178.143 277.7 178.271C278.064 178.411 278.428 178.551 278.788 178.695C279.308 178.898 279.831 179.106 280.351 179.318C280.831 179.51 281.306 179.706 281.786 179.91C281.874 179.946 281.966 179.981 282.054 180.021C282.47 180.193 282.886 180.373 283.297 180.553C283.565 180.665 283.829 180.781 284.093 180.897C285.244 181.4 286.394 181.921 287.543 182.46H287.547C288.267 182.799 288.998 183.123 289.734 183.431C289.906 183.503 290.078 183.575 290.254 183.643C290.546 183.766 290.841 183.882 291.137 184.002C291.329 184.078 291.521 184.154 291.717 184.226C292.001 184.338 292.289 184.446 292.576 184.55C292.88 184.662 293.18 184.774 293.488 184.878C293.596 184.918 293.704 184.954 293.816 184.994C294.172 185.113 294.527 185.233 294.887 185.349C294.923 185.361 294.959 185.373 294.999 185.385C295.375 185.505 295.751 185.625 296.131 185.737C296.161 185.748 296.191 185.757 296.223 185.765C296.63 185.889 297.046 186.009 297.458 186.125C298.066 186.293 298.677 186.452 299.289 186.6C299.401 186.628 299.513 186.656 299.625 186.68C299.953 186.76 300.276 186.836 300.604 186.908C300.952 186.988 301.304 187.06 301.652 187.132C302.003 187.204 302.355 187.276 302.703 187.34C302.891 187.376 303.079 187.412 303.263 187.444L303.755 187.528C304.094 187.587 304.434 187.639 304.778 187.695C304.787 187.695 304.797 187.696 304.806 187.699C305.194 187.759 305.578 187.815 305.965 187.863C306.337 187.915 306.709 187.959 307.081 188.003C307.157 188.011 307.237 188.019 307.317 188.027C307.624 188.063 307.932 188.099 308.24 188.127C308.328 188.135 308.416 188.143 308.504 188.151C308.808 188.179 309.112 188.207 309.416 188.227C309.477 188.235 309.538 188.239 309.599 188.239C309.871 188.263 310.143 188.283 310.415 188.295C310.607 188.311 310.795 188.319 310.987 188.331C311.087 188.335 311.183 188.339 311.283 188.343C311.546 188.359 311.81 188.367 312.078 188.375C312.402 188.387 312.726 188.395 313.046 188.403C313.433 188.411 313.825 188.415 314.213 188.415H314.221C314.601 188.415 314.985 188.411 315.364 188.403H315.508L315.928 188.391C316.144 188.387 316.36 188.379 316.572 188.371C316.98 188.355 317.383 188.335 317.787 188.311C317.947 188.303 318.111 188.291 318.271 188.283C318.343 188.279 318.419 188.271 318.491 188.267C318.743 188.251 318.99 188.235 319.242 188.215C319.502 188.195 319.766 188.171 320.026 188.143C320.362 188.111 320.698 188.075 321.033 188.039C321.297 188.011 321.561 187.979 321.821 187.947C321.856 187.944 321.891 187.939 321.925 187.931C322.177 187.903 322.429 187.871 322.677 187.835C322.972 187.795 323.264 187.751 323.556 187.707C323.588 187.703 323.616 187.699 323.648 187.695C324.152 187.615 324.659 187.536 325.167 187.444C325.699 187.348 326.231 187.244 326.758 187.136C326.954 187.096 327.146 187.052 327.342 187.012C327.45 186.988 327.562 186.968 327.666 186.944C327.83 186.908 327.99 186.872 328.15 186.832C328.178 186.828 328.21 186.82 328.238 186.816C328.461 186.768 328.681 186.712 328.905 186.656C329.353 186.548 329.793 186.436 330.233 186.317C330.428 186.269 330.624 186.217 330.812 186.165C330.868 186.149 330.924 186.133 330.976 186.117C331.788 185.889 332.593 185.648 333.391 185.393C333.743 185.281 334.09 185.165 334.438 185.042C335.186 184.786 335.927 184.517 336.661 184.234C336.857 184.162 337.053 184.082 337.249 184.006C337.537 183.89 337.824 183.775 338.108 183.659C338.364 183.551 338.62 183.443 338.88 183.331C339.008 183.279 339.136 183.223 339.264 183.167C339.648 182.999 340.031 182.827 340.411 182.655C340.667 182.535 340.919 182.42 341.171 182.3C341.57 182.108 341.966 181.912 342.362 181.716C342.462 181.664 342.558 181.612 342.654 181.564C342.906 181.436 343.158 181.304 343.414 181.177C343.817 180.961 344.221 180.745 344.621 180.521C344.757 180.449 344.889 180.373 345.025 180.297C345.464 180.049 345.9 179.798 346.332 179.542C347.287 178.97 348.23 178.373 349.158 177.751C349.39 177.599 349.622 177.44 349.85 177.284C350.282 176.988 350.706 176.684 351.129 176.38C351.173 176.348 351.213 176.316 351.257 176.288C351.469 176.133 351.681 175.977 351.893 175.817C352.333 175.485 352.769 175.149 353.204 174.806C353.212 174.802 353.224 174.79 353.236 174.782C353.432 174.626 353.628 174.47 353.82 174.314C354.416 173.83 355.003 173.339 355.579 172.831C355.863 172.587 356.143 172.336 356.419 172.084C356.626 171.896 356.834 171.708 357.038 171.516C357.45 171.129 357.854 170.745 358.254 170.353C358.453 170.161 358.649 169.961 358.849 169.762C359.045 169.562 359.245 169.362 359.441 169.158C359.509 169.09 359.577 169.018 359.645 168.946C359.845 168.734 360.045 168.519 360.245 168.307C360.416 168.123 360.584 167.931 360.756 167.739C361.044 167.419 361.336 167.1 361.62 166.776C361.635 166.758 361.651 166.74 361.668 166.724C361.684 166.704 361.7 166.688 361.712 166.672H361.708C367.519 159.954 371.837 152.079 374.375 143.567C376.914 135.056 377.615 126.103 376.434 117.3C375.252 108.497 372.213 100.046 367.52 92.5052C362.826 84.9644 356.584 78.5061 349.206 73.5578L349.206 73.5578Z" fill="white"/>
<g opacity="0.15">
<path opacity="0.15" d="M268.286 26.3919C269.083 29.2538 270.282 31.9882 271.847 34.5135C269.227 32.2631 266.886 29.707 264.874 26.8998C266.004 26.6861 267.142 26.5168 268.286 26.3919Z" fill="black"/>
<path opacity="0.15" d="M229.276 70.6517C226.317 72.2662 223.55 74.2104 221.029 76.4472C225.286 71.4143 228.398 65.516 230.148 59.1611C230.169 59.0848 230.19 59.0079 230.211 58.9315L230.27 58.7152C232.373 51.1306 236.453 44.2405 242.094 38.7496L242.537 38.3176L242.85 38.8514C244.579 41.7906 246.648 44.5161 249.014 46.9716C245.388 57.2011 238.332 65.7149 229.276 70.6517Z" fill="black"/>
<path opacity="0.15" d="M250.116 43.4272L250.057 43.6435C250.036 43.72 250.015 43.7968 249.994 43.8732C249.877 44.2938 249.753 44.7112 249.625 45.1268C248.36 41.8519 247.472 38.4439 246.977 34.9684L246.931 34.6734L247.173 34.5002C250.216 32.3147 253.52 30.519 257.009 29.155C253.876 33.4622 251.542 38.2961 250.116 43.4272Z" fill="black"/>
<path opacity="0.15" d="M209.43 85.9396C212.049 84.5067 214.5 82.7867 216.737 80.8114C212.267 86.0148 209.063 92.1823 207.375 98.8308C205.688 105.479 205.564 112.428 207.012 119.133C208.46 125.837 211.441 132.116 215.722 137.476C220.003 142.836 225.468 147.132 231.688 150.027L231.89 150.121L232.091 150.03C235.451 148.512 238.993 147.437 242.629 146.831C240.359 147.986 238.244 149.422 236.332 151.105L235.685 151.664L236.497 151.932C237.197 152.163 237.898 152.376 238.578 152.565C242.579 153.679 246.716 154.233 250.869 154.209C269.74 154.088 288.757 158.45 307.392 167.172C310.588 168.666 313.902 169.891 317.302 170.834C332.116 174.958 347.931 173.474 361.719 166.668C353.945 175.656 343.781 182.255 332.405 185.699C321.03 189.143 308.911 189.289 297.456 186.122C294.056 185.179 290.742 183.954 287.546 182.46C268.911 173.738 249.894 169.376 231.023 169.497C226.87 169.52 222.734 168.967 218.732 167.853C218.052 167.664 217.351 167.451 216.651 167.219L215.839 166.952L216.486 166.393C218.398 164.71 220.513 163.274 222.783 162.119C219.147 162.725 215.605 163.8 212.245 165.318L212.044 165.409L211.842 165.315C204.373 161.84 198.017 156.358 193.483 149.481C188.949 142.604 186.416 134.603 186.165 126.371C185.915 118.138 187.958 109.998 192.066 102.859C196.174 95.7196 202.186 89.8619 209.43 85.9396L209.43 85.9396Z" fill="black"/>
</g>
</g>
<path d="M232.032 135.48C230.464 135.48 229.088 135.32 227.904 135C226.752 134.712 225.616 134.296 224.496 133.752V128.184H225.216L226.896 130.68C228.08 132.472 229.728 133.368 231.84 133.368C234.336 133.368 235.584 132.456 235.584 130.632C235.584 129.96 235.408 129.416 235.056 129C234.704 128.584 234.128 128.184 233.328 127.8C232.56 127.416 231.488 126.936 230.112 126.36C228.32 125.624 226.992 124.76 226.128 123.768C225.264 122.776 224.832 121.544 224.832 120.072C224.832 118.696 225.184 117.448 225.888 116.328C226.624 115.208 227.616 114.312 228.864 113.64C230.112 112.968 231.52 112.632 233.088 112.632C234.176 112.632 235.232 112.744 236.256 112.968C237.312 113.192 238.336 113.56 239.328 114.072V119.784H238.608L237.12 117.528C236.512 116.6 235.888 115.912 235.248 115.464C234.608 115.016 233.84 114.792 232.944 114.792C231.984 114.792 231.2 115.032 230.592 115.512C230.016 115.992 229.728 116.664 229.728 117.528C229.728 118.104 229.856 118.6 230.112 119.016C230.4 119.4 230.896 119.784 231.6 120.168C232.304 120.552 233.312 121 234.624 121.512C235.52 121.864 236.4 122.28 237.264 122.76C238.16 123.208 238.896 123.864 239.472 124.728C240.08 125.56 240.384 126.728 240.384 128.232C240.384 129.736 239.984 131.032 239.184 132.12C238.384 133.208 237.344 134.04 236.064 134.616C234.816 135.192 233.472 135.48 232.032 135.48ZM251.017 107.88C249.993 107.88 249.145 107.56 248.473 106.92C247.833 106.248 247.513 105.416 247.513 104.424C247.513 103.4 247.833 102.568 248.473 101.928C249.145 101.256 249.993 100.92 251.017 100.92C252.041 100.92 252.873 101.256 253.513 101.928C254.185 102.568 254.521 103.4 254.521 104.424C254.521 105.416 254.185 106.248 253.513 106.92C252.873 107.56 252.041 107.88 251.017 107.88ZM244.537 135V134.232L247.753 132.696V118.104L244.681 115.848V115.272L253.945 112.632H254.521V132.696L257.353 134.232V135H244.537ZM271.273 127.704C269.77 127.704 268.378 127.448 267.098 126.936C266.394 127.384 266.042 128.008 266.042 128.808C266.042 130.344 267.274 131.112 269.738 131.112H275.018C277.546 131.112 279.402 131.672 280.586 132.792C281.77 133.88 282.362 135.496 282.362 137.64C282.362 139.112 281.85 140.52 280.826 141.864C279.802 143.24 278.346 144.36 276.458 145.224C274.602 146.088 272.378 146.52 269.786 146.52C266.682 146.52 264.458 146.024 263.114 145.032C261.77 144.072 261.098 142.856 261.098 141.384C261.098 140.808 261.162 140.28 261.29 139.8C261.45 139.352 261.674 138.888 261.962 138.408L264.986 136.488V136.248C262.522 135.448 261.29 133.864 261.29 131.496C261.29 130.024 261.738 128.824 262.634 127.896L265.37 126.312V126.024C264.346 125.352 263.53 124.52 262.922 123.528C262.346 122.504 262.058 121.384 262.058 120.168C262.058 118.728 262.458 117.448 263.258 116.328C264.09 115.208 265.194 114.328 266.57 113.688C267.946 113.016 269.514 112.68 271.273 112.68C272.202 112.68 273.114 112.776 274.01 112.968C274.906 113.16 275.61 113.384 276.122 113.64L283.514 113.16V116.04L278.714 115.656L278.522 115.848C279.098 116.36 279.562 117 279.914 117.768C280.266 118.536 280.442 119.336 280.442 120.168C280.442 121.608 280.042 122.904 279.242 124.056C278.442 125.176 277.338 126.072 275.93 126.744C274.554 127.384 273.002 127.704 271.273 127.704ZM271.609 125.64C272.634 125.64 273.402 125.16 273.914 124.2C274.458 123.208 274.73 121.912 274.73 120.312C274.73 118.488 274.394 117.096 273.722 116.136C273.05 115.144 272.186 114.648 271.13 114.648C270.042 114.648 269.226 115.144 268.682 116.136C268.138 117.128 267.866 118.424 267.866 120.024C267.866 121.848 268.202 123.24 268.874 124.2C269.546 125.16 270.458 125.64 271.609 125.64ZM265.178 140.472C265.178 141.72 265.61 142.744 266.474 143.544C267.338 144.376 268.602 144.792 270.266 144.792C272.314 144.792 273.93 144.312 275.114 143.352C276.298 142.424 276.89 141.32 276.89 140.04C276.89 138.824 276.57 137.976 275.93 137.496C275.29 137.016 274.17 136.776 272.57 136.776H268.442C267.962 136.776 267.498 136.76 267.05 136.728C265.802 137.528 265.178 138.776 265.178 140.472ZM286.207 135V134.232L289.423 132.696V118.104L286.351 116.136V115.56L295.087 112.632H295.663L296.095 116.184H296.335C297.487 115.064 298.607 114.2 299.695 113.592C300.783 112.952 302.063 112.632 303.535 112.632C305.487 112.632 307.071 113.128 308.287 114.12C309.535 115.112 310.159 116.584 310.159 118.536V132.696L313.375 134.232V135H300.991V134.232L303.391 132.696V120.504C303.391 119.384 303.055 118.536 302.383 117.96C301.743 117.352 300.927 117.048 299.935 117.048C299.327 117.048 298.655 117.16 297.919 117.384C297.215 117.608 296.623 117.928 296.143 118.344V132.696L298.591 134.232V135H286.207ZM334.455 107.88C333.431 107.88 332.583 107.56 331.911 106.92C331.271 106.248 330.951 105.416 330.951 104.424C330.951 103.4 331.271 102.568 331.911 101.928C332.583 101.256 333.431 100.92 334.455 100.92C335.479 100.92 336.311 101.256 336.951 101.928C337.623 102.568 337.959 103.4 337.959 104.424C337.959 105.416 337.623 106.248 336.951 106.92C336.311 107.56 335.479 107.88 334.455 107.88ZM327.975 135V134.232L331.191 132.696V118.104L328.119 115.848V115.272L337.383 112.632H337.959V132.696L340.791 134.232V135H327.975ZM343.863 135V134.232L347.079 132.696V118.104L344.007 116.136V115.56L352.743 112.632H353.319L353.751 116.184H353.991C355.143 115.064 356.263 114.2 357.351 113.592C358.439 112.952 359.719 112.632 361.191 112.632C363.143 112.632 364.727 113.128 365.943 114.12C367.191 115.112 367.815 116.584 367.815 118.536V132.696L371.031 134.232V135H358.647V134.232L361.047 132.696V120.504C361.047 119.384 360.711 118.536 360.039 117.96C359.399 117.352 358.583 117.048 357.591 117.048C356.983 117.048 356.311 117.16 355.575 117.384C354.871 117.608 354.279 117.928 353.799 118.344V132.696L356.247 134.232V135H343.863Z" fill="#18345E"/>
<defs>
<clipPath id="clip0_12_2">
<rect width="377" height="318" fill="white"/>
</clipPath>
</defs>
</svg>
