<svg width="16" height="19" viewBox="0 0 16 19" fill="none" xmlns="http://www.w3.org/2000/svg">
<path d="M15.125 17.8682C15.125 18.1665 15.0065 18.4527 14.7955 18.6637C14.5845 18.8746 14.2984 18.9932 14 18.9932H2C1.70163 18.9932 1.41548 18.8746 1.2045 18.6637C0.993526 18.4527 0.875 18.1665 0.875 17.8682C0.875 17.5698 0.993526 17.2836 1.2045 17.0727C1.41548 16.8617 1.70163 16.7432 2 16.7432H14C14.2984 16.7432 14.5845 16.8617 14.7955 17.0727C15.0065 17.2836 15.125 17.5698 15.125 17.8682ZM8 15.2432C9.69022 15.2414 11.3107 14.5692 12.5059 13.3741C13.7011 12.1789 14.3733 10.5584 14.375 8.86816V2.11816C14.375 1.8198 14.2565 1.53365 14.0455 1.32267C13.8345 1.11169 13.5484 0.993164 13.25 0.993164C12.9516 0.993164 12.6655 1.11169 12.4545 1.32267C12.2435 1.53365 12.125 1.8198 12.125 2.11816V8.86816C12.125 9.96218 11.6904 11.0114 10.9168 11.785C10.1432 12.5586 9.09402 12.9932 8 12.9932C6.90598 12.9932 5.85677 12.5586 5.08318 11.785C4.3096 11.0114 3.875 9.96218 3.875 8.86816V2.11816C3.875 1.8198 3.75647 1.53365 3.5455 1.32267C3.33452 1.11169 3.04837 0.993164 2.75 0.993164C2.45163 0.993164 2.16548 1.11169 1.9545 1.32267C1.74353 1.53365 1.625 1.8198 1.625 2.11816V8.86816C1.62674 10.5584 2.29894 12.1789 3.49411 13.3741C4.68928 14.5692 6.30978 15.2414 8 15.2432Z" fill="black"/>
</svg>
